<svg width="32" height="32" viewBox="0 0 32 32" fill="none" xmlns="http://www.w3.org/2000/svg">
<path d="M15.999 13.5417C16.1901 13.5418 16.3792 13.5798 16.5557 13.6531C16.7323 13.7264 16.8933 13.834 17.0283 13.9695L27.0283 23.9714C27.3012 24.2443 27.454 24.6148 27.4541 25.0007C27.4541 25.3868 27.3013 25.758 27.0283 26.031C26.7554 26.3039 26.3849 26.4567 25.999 26.4568C25.6131 26.4568 25.2427 26.3037 24.9697 26.031L16.0332 17.0916L16 17.0583L15.9668 17.0916L7.02832 26.0281C6.7554 26.301 6.38499 26.4547 5.99902 26.4548C5.61303 26.4548 5.24271 26.301 4.96973 26.0281C4.69674 25.7551 4.54299 25.3848 4.54297 24.9988C4.54297 24.6127 4.69672 24.2425 4.96973 23.9695L14.9697 13.9695C15.1047 13.8341 15.2648 13.7264 15.4414 13.6531C15.618 13.5797 15.8078 13.5417 15.999 13.5417ZM16.001 3.54565C16.1922 3.54565 16.382 3.58364 16.5586 3.65698C16.7351 3.73032 16.8953 3.83797 17.0303 3.97339L27.0303 13.9734C27.3033 14.2464 27.457 14.6166 27.457 15.0027C27.457 15.3887 27.3032 15.759 27.0303 16.032C26.7573 16.3048 26.387 16.4578 26.001 16.4578C25.615 16.4577 25.2446 16.3049 24.9717 16.032L16.0332 7.09155L16 7.05835L15.9668 7.09155L7.02832 16.031L6.99805 16.0603C6.72836 16.3145 6.37264 16.4578 6.00098 16.4578C5.61497 16.4577 5.24463 16.3049 4.97168 16.032C4.69873 15.759 4.54596 15.3887 4.5459 15.0027C4.5459 14.6167 4.69882 14.2464 4.97168 13.9734L14.9717 3.97339C15.1067 3.83792 15.2677 3.73032 15.4443 3.65698C15.6208 3.58374 15.8099 3.54568 16.001 3.54565Z" fill="white" stroke="white" stroke-width="0.09375"/>
</svg>
